<?xml version="1.0" encoding="utf-8"?>
<!-- Generator: Adobe Illustrator 21.1.0, SVG Export Plug-In . SVG Version: 6.00 Build 0)  -->
<svg version="1.1" id="Layer_1" xmlns="http://www.w3.org/2000/svg" xmlns:xlink="http://www.w3.org/1999/xlink" x="0px" y="0px"
	 viewBox="0 0 612 792" style="enable-background:new 0 0 612 792;" xml:space="preserve">
<style type="text/css">
	.st0{display:none;}
	.st1{display:inline;}
	.st2{fill:#993D3D;stroke:#000000;stroke-miterlimit:10;}
	.st3{fill:#9A3D3D;stroke:#000000;stroke-miterlimit:10;}
	.st4{fill:#9A3D3D;stroke:#231F20;stroke-miterlimit:10;}
	.st5{display:inline;fill:none;stroke:#000000;stroke-miterlimit:10;}
	.st6{display:inline;fill:none;stroke:#231F20;stroke-miterlimit:10;}
</style>
<g id="mono_1_" class="st0">
	<g id="mono" class="st1">
		
			<image style="overflow:visible;enable-background:new    ;" width="1114" height="1392" xlink:href="4911E2CCE8F226E0.jpeg"  transform="matrix(0.569 0 0 0.569 2.238 0)">
		</image>
	</g>
</g>
<g id="Layer_1_1_">
	<path class="st2" d="M382,81.5l-12.5,2.7l-2.3,3.7l1.3-49.8l7.3,4.2l4.2,6l5,2.5l4.5-1.7l6,4.5l-2.5-5.7c0,0,6,1.5,6.7,3.8
		s4.3,0,4.3,0l-3.7-2.5h12.2l-3.5-3.5c0,0,30.3-4.2,36.2,0.7c5.8,4.8-2-7.7-2-7.7l6.7,5.2l-1.5-4.8l5.8,1l5.2,4l-1.2-5.8
		c0,0,7.5,6.8,7.7,8s-1.5-5.3-1.5-5.3l11.8,10.7L473,44l9.7,7.5l6.2,8.5v-3.3l5.7,10.8l1.2-4.8c0,0,6.2,11.3,5.7,11.3s2-0.3,2-0.3
		L503,78c0,0,3.8,2,4.2,6.7s2,8.2,2,8.2v-7.8c0,0,7.8,13.7,5,17.8c-2.8,4.2,2.3,1.8,2.3,1.8L504.3,117l5.2-1l-0.2,9l7.5-7.5l-5,9.5
		c0,0,9.5-10.8,9-9.2c-0.5,1.7-9.3,13.8-9.3,13.8l4.8-2L498.7,144l5.7,0.8l-11.5,5l4.8,2.2l-23.3,4.5l-2.7,5.2l-8.2,0.7l3,2.3
		c0,0-8.8-0.5-9.5-0.3s4.5,5.2,4.5,5.2l-11.8-0.5c0,0,8.5,5,5.8,5s-25.2,2.7-25.2,2.7l11.3,2.3l-34.2,10.8c0,0-18.2,3.3-10.7,4.3
		s15.2,4,15.2,4l-23.7-1.3l2,5.8l-11.5-3.2l-1.5,7.3l-15.2-6l-0.7,6.8l-9.2-4.8l-1.2,5.5l-2.5,0.7l8.2-36.7l5.5-5.5l-1.7,4.8l10-4.2
		l-1.2,6.8c0,0,11.5-11.8,15.3-10.8l-5.3,8.5l16.5-15.7c0,0-5.8,10-5,9.7s14-10.3,14-10.3s-0.8,8.3-0.3,8s15.3-12.8,15.3-12.8
		l-2.8,5.8l6.8-8l1.7,7l8.8-11.3c0,0-2,5.8-1.3,6s13.3-8.3,13.3-7.2c0,1.2-1.2,4.7-1.2,4.7l9.3-3.5l6.2-3.3l7.7,0.5l4.3-3.5
		l-0.2-1.5l1.7-5.3c0,0,7.5,4.5,7.3,3.8s-2.3-12.7-2.3-12.7s7-2.8,4.5-4s-8.3-5.7-8.3-5.7s1-3.3,0.7-7.8s-7.3-9.2-7.5-7.8
		c-0.2,1.3-0.7-5.3-1.2-5.7c-0.5-0.3-10-6.3-9.3-3.8s-5,4-5,4s-4.5-7.8-4.5-7.2c0,0.7-2.7,5.8-2.7,5.8l-4.7-5.8c0,0-2.2,6.2-3.7,4.2
		s-9.3-10.7-9-9.8c0.3,0.8,4.7,6.8,2.2,5.2c-2.5-1.7-7.3-7.5-6.8-5.7s2.3,5.3,0.2,3.8c-2.2-1.5-5.5-4.5-5.2-4s-3.5,2.5-3.5,2.5
		l-4.2-3l-1,3.7l-8-2.5l1.3,4.5L391.2,79c0,0,5.7,5.2,4.8,5s-9.3-2.5-9.3-2.5s2.3,4.8,1,4.2C386.3,85,382,81.5,382,81.5z"/>
	<path class="st3" d="M267.5,200.2l-1,5.8l0.2,13.8c0,0-3-6-5.2,8.2c0,0,2,6.5,3.2,9s-5.8,7-8.2,9s-3.5,0.2-7.5,0.8s5.5,8.2,6,9
		s-6.8,0.2-6.8,0.2l2.5,7.5l-4-1.2l-0.5,7l-3.2-0.8l0.2,6.2c0,0,1.5,4.5,3,5.5s-8,15.8-8.2,18s-0.8-5-3-13.8s-4.2,20.8-5,23
		s2.2,13.5,4.2,20.8s-2,1.2-7.8,3.2s3.8,5.2,3.8,5.2s-0.8,8.8-0.5,10s-8.5,8.5-8.5,8.5s2.2,2.5,4,5s-4.2,6.5-4,12.2s6,0.2,6,0.2
		l-1.5,7.2c0,0,3.8,13.2,6.8,17s3.2-3,3.2-3s2,2.2,2.5,3.8s1,21.5,1,21.5l2.8-16l1,21.5l-3.2,15.5l4.2,1c0,0-0.2,5.8,1,14.5l2.8,17
		v8c0,0,2.8,11,3.2,12.2s1.8-5.5,1.8-5.5s3.2,7.2,5.5,11.5S254,516.2,254,518s6.8,1.8,6.8,1.8s5,15.8,4.5,15s10.5,14.5,10.5,14.5
		l12.2,6c0,0,1-4.5,1-5.2s0.2,7.8,0.2,7.8l15.2,8.5c0,0,15,14,14.2,11.8s12.8,12.8,12.8,12.8l-1.8-4.5l14,9.8v-5.2l15.5,5.5
		c0,0,2.8,3.5,6,7.5s7.5-2.8,7.5-2.8s4.8,6.8,8,11.8s0.8-4,0.8-4l18.8,13.8c0,0,6.8,9,7.8,11.2s3.5-13.8,3.5-15.8s9,12,9,12
		l45.5,44.5h5.5c49.8,2.5,4-26.5,4-26.5c53.5-5.5,8-25.5,8-25.5c43.8,0.2,7.5-23.5,7.5-23.5s-7-2.2-7.8-3s-24-0.5-24-0.5l-28.5,1.2
		l9-2.8c0,0-10.2-1.8-18-2.2s7.5-4,7.5-4h-9.8l5.8-11.2l-9.8,7.8l-18,1l3.8-4.5c0,0-13.5,0.8-16.2,0.5s9.8-5.2,9.8-5.2l-12.8,0.8
		l-14,0.2l10.5-4.8l-14.2-6c0,0-14,1.2-14.2,0.5s3.2-4,3.8-5.2s-15,1.5-21.2-0.2s7-10.2,7-10.2s-11.8-1.2-13-2.2s5.2-5.8,5.2-5.8
		s-18.5-9.8-18.5-10.5s9-8,10.8-8s-23-6-24-7s14-1,14-1l-23-13l3.8-7.2c0,0-8.2-2-8.2-3s2.5-7,2.5-8s-14.8-10-14.8-10l7,0.2l-6-14.8
		c0,0-14.5-17.2-15-18.2s11.2-2.2,11-3s-3.5-8.8-3.5-10.5s5.8,2,5.8,2s-6-15-5.5-15.8s2.8-4.2,2.8-4.2l-10.2-18c0,0-11.8-21-12-23.8
		s8.5,7.8,10,7.8s-7.5-27-7.2-28s5,8.8,5,8.8l-1.5-24.5c0,0,2.2,3,5,9.8s4.8-6.8,5.5-7.8s5.2-0.5,5.2-0.5l18,8.5c0,0,7-5,17-8.2
		s-2.8,13-2.8,13l9.5-5.2c0,0,11,10.2,13.2,10.8s3-6.5,3-7.2s6.8,6.2,6.8,6.2l6-5.5c0,0,15.2-12,15.5-12.8s-6.2,21.5-6.2,21.5
		l-6.2,0.8c0,0,2.8,2.5,3.2,4s-0.8,6.5-0.8,6.5s-0.5,8.8-0.5,9.5s-4-2.5-4-2.5v14.2l-5.2,1c0,0,2.2,3.5,3.2,4.8s-10.2,2.2-10.2,2.2
		l2.8,4.8l-6.8,11l2.2,7.8l-6.2,8.8l3,4.5L319,439c0,0,4,3.8,4.2,4.5s-10.8,1.2-10.8,1.2l2.2,2.8l2.5,8.8l-7.5,3l3.8,6.2l-4.8,5
		l4,4.8l-10,7.2l5.8-0.5l-6.8,9.8l4-0.8l-4,8.2l2.8,7.5l-5.2,4.8l-7.8-3.2l1.2,7.5l-2.8-1.5l1.5,10.2l-7,5l4,3.5l-8.5,5.8l6.8,0.5
		l-1.8,10l-4.5,5l-6.8,6.5l6-0.8c0,0-1.2,6.8-1.2,7.5s-5,1.2-5,1.2l0.5,5.8l-6.2,6.8l3,3.8l-6.8,3l1.2,1.8l-6.5,4l5.5,1.2l-6.2,6.5
		l2.2,0.2l-3.2,3.5l-7.2,1c0,0,6.5,4,7.5,5S246,613,246,613s5,1.5,6.2,1.5s-7.2,2.8-7.2,2.8l6.2,1.5l-12.5,3.5c0,0,4,4.8,5.2,4.8
		s-10-0.2-10-0.2l2.2,4.5l-5.5-0.5l3.8,5.2l-22.8,4.8l18,1l-7,5.5l-10.5,5l7.5,3.2l-15.8,3l8,4l-7.5,1.5l2.2,4.5c0,0-4.2,0.8-6,1
		s2,1.5,2.8,1.8s-7.2,7.5-7.2,7.5l5.8-1.5l-1.2,5.2c-13.8,8-49,55-49,55c-5.5,13.8,1.2,16,1.2,16c8.5,8.2,21.2-1,21.2-1
		c-5.8,12.2,1.8,22,1.8,22c13.5,4.2,21-6.2,22.8-6c21.8,3.1,13.5,16.2,13.5,16.2c32-6.5,28-74.5,28-74.5l6.8-17.8l8.8,11.8
		l-4.2-15.8l12.8-12.5c0,0-8.5-2.8-6.8-6.8s-1-12.5-1.2-15.5s14.5-0.8,14.5-0.8s6.5-15.2,8.5-18.8s7.8,3,7.8,1s-6.8-14.2-7.5-16.8
		s13-0.5,13.8-1.5s-2.2-10.5-2.2-10.5l12,2.5l-5.5-13.8l6-3c0,0-7-13-3.2-13.8s-0.2-11.2,0.2-13.2s9-9.2,9-9.2l-2.5-12.8l9,0.5
		l2.8-19.5c0,0-0.2-6.2,0.5-7.8s6-0.5,6-0.5s-0.8-12.8-0.8-13.5s4.2,2.5,4.2,2.5l-4.2-8.8l8.8-8l-7.2-6.5c0,0,10,2,10,1
		s0.2-11.8,2-11.8s6.5-9,6.5-9l2.5-10.8c0,0,4.5-6.5,6.8-9.2s-1-13.2-1-14.5s9.8-2.5,9.8-2.5l2.8-16.8l-4.8-10.5v-16.5l9.5,3
		l-4-10.2l8.5-11.2l-9-6.4l7.2-3.8c0,0-8.2-10-8.2-11.2s7.2-5.2,7.8-6.2s-9-10.2-9-10.2l11.5-3.5c0,0-14-8.8-17-10
		s10.5,5.8,10.5,5.8s1.8-11,2.5-13.8s-10.5-4.8-11.8-5.5s8-2.2,8-2.2s-4.8-11.2-7.8-11.8s-9-2.8-10-5.5s9-3,7.5-3.2
		s-2.8-2.5-3.8-5.2s3.5-3,5.8-6s-6-2.2-6-2.2l4.5-12.2c0,0,1.2-17,1.2-23s-5.8,12.2-5.8,12.2l0.5-19.2l9.8-45.2
		c0,0,3.7-7.3,6.2-10.6s-2.2-3.2-2.2-3.2s4.2-7,5.2-8s-3.2-3-2.8-4.8s4.2-5.5,4.5-6.5s-4,2-4,2s4.5-8.8,4.8-9.8s2.7-14.6,2.7-14.6
		l-93.9,42.2l-7.1-4.4c0,0-7.2-2.2-7.8-3.2s-3-0.2-3,1.2s-5.5,0.8-5.5,0.8s-4.1,3.8-2.2,4.7c1.9,0.8,2.9,4.8,3.7,6.6
		s5.2,12.2,5.2,12.2s-8.2,2-7,3.2s10.2,11.2,10.2,11.2L267.5,200.2z"/>
	<g id="Layer_2">
		<path class="st3" d="M270.9,114.5c0,0,2.7,6.4,0.6,5.1l-10.9-8l8.2,10.3l-4.7-1l5.1,8.2l-7.8-3.5l6.4,9.7l2.3,5.1l-7.4-1.6
			c0,0,11.7,10.3,12.3,9.7c0.6-0.6-8.4,1.4-11.3-2.7c0,0,9.6,12.9,13.6,13.3s9.1,2,9,1s1.8-2.5,1.8-2.5s1.3,7.3,4.4,7.5
			s4,0.4,3.8,0.3c-0.2-0.1-2.3-3.3-2.3-3.3l3.6-0.6l1.4-2.6l3.1,1c0,0,0.1,3.3,3.4,5.5l1.8,0.4l0.1-1.7c0,0-2.3-0.3-2.5-3.7
			s2.9-0.2,2.9-0.2l4,5.1c0,0,1.7,2.8,3.9-5.6c0,0,5.6,1.9,5.9,5.7c0,0.1,0,0.2,0,0.3c0,0,1.4-3.2,0.1-7.4c-1.3-4.1,3,6.6,3.8,9.1
			s-0.5-10.3,2.1-12.7s10.8-1.1,10.8-1.1s-0.5-3.7-2.8-4.5c-2.4-0.8,3.4-2.3,3.7-2.4c0.3-0.1,1.4,0,1.4,0l0.8-1.8
			c0,0,4.3-1.7,5.3-0.2s4.1,1.7,4.2,1.6l1.9-1.4l0.3-3.5c0,0-2.5-7.3-3.8-7.9c-1.3-0.6-1.9-3.7-1.9-3.7l2-2.8c0,0,4,7.1,5,4.9
			s3.8,1,3.8,1s-5.7-5.6-5.6-8.2s6.6-0.9,12.4,2.1c5.8,3,6.5,3.4,6.5,3.4l-0.4-13.3l5.2-7.5l-3.3-0.8l3.7-8.6c0,0-4.4,3.5-4.2,2.6
			c0.2-0.9,3.2-9.8,3.2-9.8l1.8-4.4l-3.3-3.3L371,73.2l-0.2-5.5l3.5-10.8l5.5-4.8l-3-5.8l-6.5-4.5l-6.5,5l-3.8-9l-2.2-6l-5.8,5.5
			l1.5-7.8L347,35l-4.2-5.2l-10.2,4l-1.2-4.8c0,0-1,4.5-2.2,5s-5.2,2.2-5.2,2.2l-2.8-1.8l-0.2,5c0,0-7.2-3.3-7.3-3.5
			s-4.2-5.2-4.2-5.2l-2.8,6.2l-6.1,1.5l-1.3-2.4c0,0-3.8-1.8-3.9-1.6s-1.2,2.5-1.4,2s-3.3-7.9-3.3-7.9s-1.4,7-0.6,8.4
			s-8.6-8.1-8.6-8.1s3.4,8.9,1.9,10.6s-8.4-3.1-8.4-3.1s3.3,7.1,4.5,7.7s-6.1,1.4-5.9,0.1s-0.6,2.8-0.6,2.8l0.7,3.8L275,54v8.8
			c0,0-9.7,0.8-9.7-0.2s3.5,8.5,3.5,8.5L262,67l0.3,6.8l-5.7,1.5l4.7,6.5l-7.7-3.7l8.2,10.5L270.9,114.5z"/>
		<path class="st3" d="M309.9,75.7c0,0-33.7-8.1-42.7,11.8c0,0-0.9,3.9-0.9,9c-0.1,5.1,0.7,11.4,4,16.1c0,0,17.6,10.2,29.6-4.6
			s11.4-22,11.4-22.8"/>
		<path class="st3" d="M271.3,109.4c0,0,14.9,16.7,34-14.3c0,0,13.3-21.1-6.1-19.4C279.9,77.5,260.7,76.8,271.3,109.4z"/>
		<path class="st3" d="M302.6,84.5c0,0-4.9-1.8-8.3,6.2c0,0-0.1,5,2.5,7.2c0,0,5.3,4,7.2,0c1.9-4,5.3-8.1,1.9-10.8
			S302.6,84.5,302.6,84.5z"/>
		<path class="st4" d="M311.2,85.3c0,0,4.7-5.6,7.7-3.1s1.8,1.4,1.8,1.4s5,23.2,22.5,25.5c17.4,2.3,22.2-3.5,22.2-3.5
			s5.6-5.7,7.7-15.9c0,0,0.2-4.2,1.1-4.7c0,0,5-0.5,5.2-5.6c0.2-5-2.7-6.3-2.7-6.3s-33.4-10.6-52.1,1.7c0,0-14.8-0.8-14.8,0.9"/>
		<path class="st4" d="M369.7,92.6c-7.1,13.6-12.8,14.4-12.8,14.4c-6.5,1.7-14.7-0.4-14.7-0.4c-12.3-6.2-12.8-9.4-12.8-9.4
			c-11.3-13,0.8-21.5,0.8-21.5s17.8-11.3,40.2,0.7C370.4,76.5,375.4,81.8,369.7,92.6z"/>
		<path class="st3" d="M315,112.2c0,0-1.8,0.2-1.7-2.4c0.1-2.6,2.2-1.2,2.2-1.2s2.2-0.5,1.8,1.8C316.9,112.8,315,112.2,315,112.2z"
			/>
		<path class="st3" d="M308.9,114.6c0,0-2.1-0.2-2.1-1.9c0-1.7,1.8-1.8,1.8-1.8s2.2,0.1,1.8,1.6
			C310.3,112.4,311.3,113.7,308.9,114.6z"/>
		<path class="st3" d="M333.4,95.1c0,0,5.9-1.5,5.5-6.2s-5.5-7.4-5.5-7.4s-4.3-0.8-6.5,2.8c0,0-1.3,3.7,0,5.8
			C328.2,92.1,330.2,96.6,333.4,95.1z"/>
		<path class="st3" d="M286.4,123.5c0,0,25.3,13.8,58.4-7.8v5.6l-8.2,14.8c0,0-12.3,10.1-37.2,12.5c0,0-7.2,3.3-14.6-0.4l-4.5-8.8
			c0,0,4.9-7,6.2-6.6C287.6,133.2,286.4,123.5,286.4,123.5z"/>
		<path class="st3" d="M264.2,88.5l2-6.8l10.2-32.8l-5,3.7l-2.5,0.3l0.3-5.5L258.8,50l-4,2.7l1-9l-8.7,5.3l-13.5-0.3
			c0,0,5.7-5.3,5-5.3s-11.5,3.2-11.5,3.2l-16.3,1.2l2.7-1.5l-5.7-0.3c0,0-12.2,2.7-16,2.7s4.3-4.3,4.3-4.3l-15.8,7.3l-1.3-2.8
			c0,0-5.3,1.2-4.8-0.2S164,53.3,164,53.3l-2.5,10.8l-9,7.7l-0.5,5l-6-2.7l2.5,19.3l1.8,13.7l-11.2-6l11,9.8l7.8,16l-4.5,1
			c0,0,14.5,11,17,11.8s-11.7-0.2-11.7,1.7s21,6.2,21,6.2l-4.8,0.2l8.7,5.3c0,0,6.3-1.8,7-1.7c0.7,0.2,6.8,2.7,6.8,2.7l4.7-0.5
			l4.2,2.5l13.2,3l6.5,5.2l-4.2,6.2c0,0,10.5-4.5,10.2,1s19.2,14.2,19.2,14.2s-8.5-2.8-8.7-0.5s14,7,14,7l-4,5
			c8.2,0.5,23.5-9.2,23.5-9.2l5.7-21l-2.2-4.7l-0.7,4.5l-10.3-10l-2.2,2.3l-6.2-15.8l2.5,13.7c-2.3-7.4-5.3-14.2-5.3-14.2
			s0.2,4.1-4.3,6.8c-4.5,2.7-10.9-11.5-12.8-16.7c-1.9-5.1-3.1,9.7-3.1,9.7s-5.6-10.3-7-12.5c-1.4-2.3-7.2-7.2-7.2-7.2
			s7.2,11.9,4.9,10.1c-2.3-1.9-10.1-6.6-9.7-8.4c0.4-1.9-4.7-2.7-4.7-2.7s7.2,12.3,3.1,13.6c0,0-2.9-15.8-9.5-16.7l-6.8-1.4l1,6
			l-12.1-4.9l0.6,6.2l-4.5-5.1l-0.8,3.5l-7.4,6.8l-1-22.2c0,0-1.6,6.4-1.9,5.6c-0.2-0.8-1.4-8.4-1.4-8.4l-7.4,7.4l3.3-10.5l-4.1,2.3
			l6.2-10.9l-5.1-0.6l9.5-4.1l-2.7-1.9l8.8-3.3l8-3.7l1.9,2.9L209,89l-7.8-6.2c0,0,13.8,5.1,14.4,5.1c0.6,0-9-5.6-9-5.6l21.6,0.4
			l22.4,5.1l8,6.8l-5.8-7.8l6,3.3L264.2,88.5z"/>
	</g>
</g>
<g id="lentes" class="st0">
	<g id="Layer_3">
	</g>
	<path class="st5" d="M307.4,68.6c0,0-33.7-8.1-42.7,11.8c0,0-0.9,3.9-0.9,9c-0.1,5.1,0.7,11.4,4,16.1c0,0,17.6,10.2,29.6-4.6
		s11.4-22,11.4-22.8"/>
	<path class="st5" d="M268.8,102.3c0,0,14.9,16.7,34-14.3c0,0,13.3-21.1-6.1-19.4C277.4,70.4,258.2,69.6,268.8,102.3z"/>
	<path class="st5" d="M300.2,77.3c0,0-4.9-1.8-8.3,6.2c0,0-0.1,5,2.5,7.2c0,0,5.3,4,7.2,0c1.9-4,5.3-8.1,1.9-10.8
		C300.2,77.3,300.2,77.3,300.2,77.3z"/>
	<path class="st5" d="M330.9,88c0,0,5.9-1.5,5.5-6.2s-5.5-7.4-5.5-7.4s-4.3-0.8-6.5,2.8c0,0-1.3,3.7,0,5.8
		C325.7,85,327.7,89.5,330.9,88z"/>
	<path class="st6" d="M308.7,78.2c0,0,4.7-5.6,7.7-3.1s1.8,1.4,1.8,1.4s5,23.2,22.5,25.5s22.2-3.5,22.2-3.5s5.6-5.7,7.7-15.9
		c0,0,0.2-4.2,1.1-4.7c0,0,5-0.5,5.2-5.6c0.2-5-2.7-6.3-2.7-6.3s-33.4-10.6-52.1,1.7c0,0-14.8-0.8-14.8,0.9"/>
	<path class="st6" d="M367.2,85.5c-7.1,13.6-12.8,14.4-12.8,14.4c-6.5,1.7-14.7-0.4-14.7-0.4c-12.3-6.2-12.8-9.4-12.8-9.4
		c-11.3-13,0.8-21.5,0.8-21.5s17.8-11.3,40.2,0.7C367.9,69.3,372.9,74.6,367.2,85.5z"/>
</g>
</svg>
